<svg xmlns="http://www.w3.org/2000/svg" xml:space="preserve" id="cloud-management" x="0" y="0" enable-background="new 0 0 64 64" version="1.1" viewBox="0 0 64 64">
  <path fill="#2e3a46" d="M42.71,25.47c-1.1-4.4-4.27-7.19-8.12-7.1c-2.9,0.05-6.14,1.89-7.62,5.82c-1.49-0.58-2.96-0.48-4.09,0.32
		c-0.44,0.31-0.8,0.72-1.06,1.16c-1.25-0.41-2.55-0.2-3.62,0.6c-1.36,1.01-2.1,2.75-1.89,4.42c0.23,1.79,1.48,3.22,3.52,4.05
		c0.06,0.02,0.12,0.04,0.18,0.04l4.43,0.02v5.78c0,0.15-0.13,0.28-0.28,0.28h-2.64c-0.21-0.76-0.9-1.31-1.72-1.31
		c-0.99,0-1.8,0.81-1.8,1.8s0.81,1.8,1.8,1.8c0.82,0,1.51-0.55,1.72-1.31h2.64c0.7,0,1.26-0.57,1.26-1.26v-5.78l2.03,0.01v2.37
		c0,0,0,0,0,0c-0.74,0.2-1.28,0.88-1.28,1.69c0,0.97,0.8,1.77,1.77,1.77c0.98,0,1.77-0.8,1.77-1.77c0-0.81-0.53-1.48-1.27-1.69
		c0,0,0,0-0.01,0V34.8l3.07,0.01v4.8c-0.75,0.21-1.3,0.9-1.3,1.72c0,0.99,0.8,1.8,1.79,1.8c0.99,0,1.8-0.81,1.8-1.8
		c0-0.82-0.55-1.51-1.31-1.72v-4.8l3.06,0.01v2.33c0,0,0,0,0,0c-0.74,0.21-1.27,0.88-1.27,1.69c0,0.97,0.79,1.77,1.77,1.77
		c0.97,0,1.77-0.8,1.77-1.77c0-0.81-0.54-1.49-1.28-1.69c0,0,0,0,0,0v-2.33l2.01,0.01v5.72c0,0.7,0.57,1.26,1.26,1.26h2.64
		c0.21,0.76,0.9,1.31,1.72,1.31c0.99,0,1.8-0.81,1.8-1.8s-0.81-1.8-1.8-1.8c-0.82,0-1.51,0.55-1.72,1.31h-2.64
		c-0.16,0-0.28-0.12-0.28-0.28v-5.71l3.48,0.02c2.23-0.14,3.75-1.13,4.39-2.86c0.51-1.36,0.4-2.87-0.28-4.14
		c-0.64-1.19-1.69-2-2.96-2.3C43.69,25.45,43.19,25.42,42.71,25.47z M46.26,28.33c0.55,1.02,0.63,2.24,0.22,3.33
		c-0.5,1.36-1.69,2.11-3.5,2.22l-10.97-0.05c-0.01,0-0.01,0-0.02,0c-0.01,0-0.01,0-0.02,0l-11.87-0.06
		c-1.64-0.69-2.65-1.83-2.82-3.23c-0.17-1.31,0.44-2.71,1.5-3.5c0.8-0.59,1.73-0.73,2.65-0.45c-0.06,0.29-0.09,0.58-0.05,0.86
		c0.03,0.25,0.24,0.43,0.49,0.43c0.02,0,0.04,0,0.06,0c0.27-0.03,0.46-0.28,0.43-0.55c-0.08-0.69,0.36-1.52,1.08-2.03
		c0.52-0.37,1.61-0.83,3.21-0.19c-0.11,0.38-0.2,0.78-0.28,1.2c-0.05,0.27,0.13,0.52,0.4,0.57c0.03,0.01,0.06,0.01,0.09,0.01
		c0.23,0,0.44-0.17,0.48-0.41c0.87-4.87,4.27-7.1,7.25-7.15c0.04,0,0.08,0,0.12,0c3.33,0,6.03,2.45,7.02,6.31
		c-0.54,0.17-1.06,0.44-1.53,0.8c-1.08,0.86-1.7,2.12-1.7,3.47c0,0.27,0.22,0.49,0.49,0.49c0.27,0,0.49-0.22,0.49-0.49
		c0-1.05,0.48-2.03,1.33-2.7c0.89-0.71,2.03-0.96,3.13-0.71C44.94,26.76,45.76,27.4,46.26,28.33z"></path>
  <path fill="#0370b6" d="M63.17,26.43h-5.16c-0.67-3.18-1.91-6.16-3.67-8.88l3.64-3.65c0.16-0.15,0.25-0.36,0.25-0.58
		c0-0.23-0.09-0.44-0.25-0.59l-6.71-6.71c-0.32-0.33-0.85-0.33-1.17,0l-3.64,3.64c-2.72-1.76-5.71-2.99-8.88-3.67V0.83
		C37.58,0.37,37.2,0,36.75,0h-9.49c-0.46,0-0.83,0.37-0.83,0.83v5.16c-3.18,0.68-6.16,1.91-8.88,3.67L13.9,6.02
		c-0.32-0.33-0.85-0.33-1.17,0l-6.71,6.71c-0.32,0.32-0.32,0.85,0,1.17l3.65,3.65c-1.77,2.72-3,5.7-3.68,8.88H0.83
		C0.37,26.43,0,26.8,0,27.26v9.49c0,0.45,0.37,0.82,0.83,0.82h5.16c0.68,3.18,1.91,6.16,3.68,8.88L6.02,50.1
		c-0.32,0.32-0.32,0.85,0,1.17l6.71,6.71c0.32,0.33,0.85,0.33,1.17,0l3.65-3.64c2.72,1.76,5.7,3,8.88,3.67v5.16
		c0,0.46,0.37,0.83,0.83,0.83h9.49c0.45,0,0.83-0.37,0.83-0.83v-5.16c3.17-0.67,6.16-1.91,8.88-3.67l3.64,3.64
		c0.33,0.33,0.85,0.33,1.17,0l6.71-6.71c0.16-0.15,0.25-0.36,0.25-0.58c0-0.23-0.09-0.43-0.25-0.59l-3.64-3.65
		c1.76-2.72,3-5.7,3.67-8.88h5.16c0.46,0,0.83-0.37,0.83-0.82v-9.49C64,26.8,63.63,26.43,63.17,26.43z M51.3,32
		c0,10.64-8.66,19.3-19.3,19.3S12.7,42.64,12.7,32S21.36,12.7,32,12.7S51.3,21.36,51.3,32z"></path>
</svg>
